<svg xmlns="http://www.w3.org/2000/svg" width="15.982" height="15.982" viewBox="0 0 15.982 15.982"><g transform="translate(5.626 5.625)"><path d="M138.366,136a2.366,2.366,0,1,0,2.366,2.366A2.368,2.368,0,0,0,138.366,136Zm0,3.38a1.014,1.014,0,1,1,1.014-1.014A1.015,1.015,0,0,1,138.366,139.38Z" transform="translate(-136 -136)"/></g><path d="M15.316,7.325H13.945A6,6,0,0,0,8.657,2.037V.666a.666.666,0,0,0-1.332,0V2.037A6,6,0,0,0,2.037,7.325H.666a.666.666,0,1,0,0,1.332H2.037a6,6,0,0,0,5.288,5.288v1.371a.666.666,0,0,0,1.332,0V13.945a6,6,0,0,0,5.288-5.288h1.371a.666.666,0,1,0,0-1.332ZM7.991,12.653a4.662,4.662,0,1,1,4.662-4.662A4.667,4.667,0,0,1,7.991,12.653Z"/></svg>