<svg xmlns="http://www.w3.org/2000/svg" width="22.089" height="17.836" viewBox="0 0 22.089 17.836"><defs><style>.a{fill:#2196f3;}.b{stroke:#000;stroke-width:2px;}</style></defs><g transform="translate(1 1)"><path class="a" d="M19.972,63.542a.417.417,0,0,0-.091-.136l-5-5a.417.417,0,0,0-.589.589l4.29,4.29H10.419A9.6,9.6,0,0,1,.833,53.7.417.417,0,1,0,0,53.7,10.43,10.43,0,0,0,10.419,64.118h8.162l-4.289,4.289a.417.417,0,1,0,.579.6l.01-.01,5-5a.417.417,0,0,0,.091-.454Z" transform="translate(0 -53.283)"/><path class="b" d="M363.064,192.254a.417.417,0,0,1-.3-.712l4.707-4.706-4.707-4.706a.417.417,0,0,1,.589-.589l5,5a.417.417,0,0,1,0,.589l-5,5A.417.417,0,0,1,363.064,192.254Z" transform="translate(-348.479 -176.418)"/><path class="b" d="M19.587,64.118H10.419A10.43,10.43,0,0,1,0,53.7a.417.417,0,1,1,.834,0,9.6,9.6,0,0,0,9.585,9.585h9.168a.417.417,0,1,1,0,.834Z" transform="translate(0 -53.283)"/></g></svg>