<svg xmlns="http://www.w3.org/2000/svg" width="18.913" height="18.948" viewBox="0 0 18.913 18.948"><defs><style>.a{fill:none;stroke:#000;stroke-linecap:round;stroke-linejoin:round;stroke-width:2px;}</style></defs><path class="a" d="M19.024,14.687v2.551a1.7,1.7,0,0,1-1.854,1.7,16.828,16.828,0,0,1-7.338-2.611,16.582,16.582,0,0,1-5.1-5.1A16.828,16.828,0,0,1,2.119,3.854,1.7,1.7,0,0,1,3.811,2H6.362a1.7,1.7,0,0,1,1.7,1.463,10.919,10.919,0,0,0,.6,2.389,1.7,1.7,0,0,1-.383,1.794L7.2,8.726a13.606,13.606,0,0,0,5.1,5.1l1.08-1.08a1.7,1.7,0,0,1,1.794-.383,10.918,10.918,0,0,0,2.389.6,1.7,1.7,0,0,1,1.463,1.726Z" transform="translate(-1.111 -1)"/></svg>