<?xml version="1.0" encoding="UTF-8"?>
<svg width="58px" height="45px" viewBox="0 0 58 45" version="1.1" xmlns="http://www.w3.org/2000/svg" xmlns:xlink="http://www.w3.org/1999/xlink">
    <title>boost-rules-empty-state</title>
    <g id="Boost-rules" stroke="none" stroke-width="1" fill="none" fill-rule="evenodd">
        <g id="Boost-rules---empty-state" transform="translate(-1018, -320)" fill="#5C5C5C" fill-rule="nonzero">
            <g id="boost-rules-empty-state" transform="translate(1018, 320)">
                <path d="M41.8290323,44.8918269 L11.1709677,44.8918269 C10.5322581,44.8918269 10,44.3509615 10,43.7019231 L10,1.18990385 C10,0.540865385 10.5322581,0 11.1709677,0 L41.8290323,0 C42.4677419,0 43,0.540865385 43,1.18990385 L43,9.41105769 C43,10.0600962 42.4677419,10.6009615 41.8290323,10.6009615 C41.1903226,10.6009615 40.6580645,10.0600962 40.6580645,9.41105769 L40.6580645,2.27163462 L12.2354839,2.27163462 L12.2354839,42.6201923 L40.6580645,42.6201923 L40.6580645,39.1586538 C40.6580645,38.5096154 41.1903226,37.96875 41.8290323,37.96875 C42.4677419,37.96875 43,38.5096154 43,39.1586538 L43,43.8100962 C43,44.4591346 42.4677419,45 41.8290323,45 L41.8290323,44.8918269 Z" id="Path"></path>
                <path d="M5.85074627,39 L1.14925373,39 C0.52238806,39 3.11750625e-13,38.4533762 3.11750625e-13,37.7974277 L3.11750625e-13,6.20257235 C3.11750625e-13,5.54662379 0.52238806,5 1.14925373,5 L5.85074627,5 C6.47761194,5 7,5.54662379 7,6.20257235 L7,37.7974277 C7,38.4533762 6.47761194,39 5.85074627,39 Z M2.19402985,36.7041801 L4.70149254,36.7041801 L4.70149254,7.40514469 L2.19402985,7.40514469 L2.19402985,36.5948553 L2.19402985,36.7041801 Z" id="Shape"></path>
                <path d="M18.5,29.525 C17.84,29.525 17.29,28.975 17.29,28.315 L17.29,24.685 C17.29,24.025 17.84,23.475 18.5,23.475 C19.16,23.475 19.71,24.025 19.71,24.685 L19.71,28.315 C19.71,28.975 19.16,29.525 18.5,29.525 Z" id="Path"></path>
                <path d="M22.5,29.515 C21.84,29.515 21.29,28.965 21.29,28.305 L21.29,22.695 C21.29,22.035 21.84,21.485 22.5,21.485 C23.16,21.485 23.71,22.035 23.71,22.695 L23.71,28.305 C23.71,28.965 23.16,29.515 22.5,29.515 L22.5,29.515 Z" id="Path"></path>
                <path d="M34.5,29 C33.84,29 33.29,28.488189 33.29,27.8740157 L33.29,17.1259843 C33.29,16.511811 33.84,16 34.5,16 C35.16,16 35.71,16.511811 35.71,17.1259843 L35.71,27.8740157 C35.71,28.488189 35.16,29 34.5,29 Z" id="Path"></path>
                <path d="M30.5,29 C29.84,29 29.29,28.4495413 29.29,27.7889908 L29.29,18.2110092 C29.29,17.5504587 29.84,17 30.5,17 C31.16,17 31.71,17.5504587 31.71,18.2110092 L31.71,27.7889908 C31.71,28.4495413 31.16,29 30.5,29 Z" id="Path"></path>
                <path d="M10.8676471,42 L6.13235294,42 C5.51470588,42 5,41.4568245 5,40.8050139 L5,4.19498607 C5,3.54317549 5.51470588,3 6.13235294,3 L10.8676471,3 C11.4852941,3 12,3.54317549 12,4.19498607 L12,40.8050139 C12,41.4568245 11.4852941,42 10.8676471,42 Z M7.26470588,39.718663 L9.73529412,39.718663 L9.73529412,5.38997214 L7.26470588,5.38997214 L7.26470588,39.6100279 L7.26470588,39.718663 Z" id="Shape"></path>
                <g id="Group" transform="translate(25, 12)">
                    <path d="M12.6932271,25.1785714 C9.46613546,25.1785714 6.23904382,24 3.76494024,21.5357143 C1.39840637,19.1785714 0,15.9642857 0,12.6428571 C0,9.32142857 1.29083665,6.10714286 3.76494024,3.75 C6.1314741,1.39285714 9.35856574,0 12.6932271,0 C16.0278884,0 19.2549801,1.28571429 21.6215139,3.75 L21.6215139,3.75 C26.5697211,8.67857143 26.5697211,16.7142857 21.6215139,21.6428571 C19.1474104,24.1071429 15.9203187,25.2857143 12.6932271,25.2857143 L12.6932271,25.1785714 Z M12.6932271,2.25 C9.89641434,2.25 7.31474104,3.32142857 5.37848606,5.25 C3.44223108,7.17857143 2.36653386,9.85714286 2.36653386,12.5357143 C2.36653386,15.2142857 3.44223108,17.8928571 5.37848606,19.8214286 C9.46613546,23.8928571 16.0278884,23.8928571 20.1155378,19.8214286 C24.2031873,15.75 24.2031873,9.21428571 20.1155378,5.14285714 L20.1155378,5.14285714 C18.1792829,3.21428571 15.4900398,2.14285714 12.8007968,2.14285714 L12.6932271,2.25 Z" id="Shape"></path>
                    <path d="M32.0557769,33 C32.0557769,33 31.5179283,32.8928571 31.1952191,32.6785714 L20.0079681,21.5357143 C20.0079681,21.5357143 19.5776892,20.3571429 20.0079681,19.9285714 C20.438247,19.5 21.1912351,19.5 21.6215139,19.9285714 L32.8087649,31.0714286 C32.8087649,31.0714286 33.2390438,32.25 32.8087649,32.6785714 C32.5936255,32.8928571 32.2709163,33 31.9482072,33 L32.0557769,33 Z" id="Path"></path>
                </g>
            </g>
        </g>
    </g>
</svg>