<?xml version="1.0" encoding="UTF-8"?>
<svg width="58px" height="50px" viewBox="0 0 58 50" version="1.1" xmlns="http://www.w3.org/2000/svg" xmlns:xlink="http://www.w3.org/1999/xlink">
    <title>boost-products</title>
    <g id="Boost-rules" stroke="none" stroke-width="1" fill="none" fill-rule="evenodd">
        <g id="Boost-rules---empty-state" transform="translate(-1021, -325)" fill="#5C5C5C" fill-rule="nonzero">
            <g id="boost-products" transform="translate(1021, 325)">
                <g id="Group" transform="translate(0, 0)">
                    <path d="M38.1399549,16.209068 C38.1399549,16.209068 37.7065463,16.209068 37.489842,15.9823678 C36.9480813,15.6423174 36.8397291,14.8488665 37.1647856,14.2821159 L42.5823928,5.78085642 C42.5823928,5.78085642 43.6659142,5.10075567 44.2076749,5.44080605 C44.7494357,5.78085642 44.8577878,6.5743073 44.5327314,7.14105793 L39.1151242,15.6423174 C39.1151242,15.6423174 38.5733634,16.209068 38.1399549,16.209068 L38.1399549,16.209068 Z" id="Path"></path>
                    <path d="M31.9638826,34.3450882 C31.9638826,34.3450882 31.530474,34.3450882 31.3137698,34.1183879 C30.772009,33.7783375 30.6636569,32.9848866 30.9887133,32.418136 L40.1986456,18.02267 C40.1986456,18.02267 41.282167,17.3425693 41.8239278,17.6826196 C42.3656885,18.02267 42.4740406,18.8161209 42.1489842,19.3828715 L32.9390519,33.7783375 C32.9390519,33.7783375 32.3972912,34.3450882 31.9638826,34.3450882 L31.9638826,34.3450882 Z" id="Path"></path>
                    <path d="M20.4785553,44.7732997 C20.4785553,44.7732997 20.1534989,44.7732997 19.9367946,44.6599496 C19.6117381,44.4332494 19.2866817,44.093199 19.2866817,43.6397985 L19.2866817,32.0780856 L3.35891648,7.25440806 C3.35891648,7.25440806 3.14221219,6.00755668 3.68397291,5.55415617 C4.22573363,5.21410579 4.98419865,5.32745592 5.30925508,5.89420655 L21.3453725,31.0579345 C21.3453725,31.0579345 21.5620767,31.511335 21.5620767,31.7380353 L21.5620767,41.372796 L26.3295711,38.0856423 L26.3295711,31.8513854 C26.3295711,31.1712846 26.8713318,30.604534 27.5214447,30.604534 C28.1715576,30.604534 28.7133183,31.1712846 28.7133183,31.8513854 L28.7133183,38.7657431 C28.7133183,38.7657431 28.496614,39.559194 28.1715576,39.7858942 L21.1286682,44.7732997 C21.1286682,44.7732997 20.6952596,45 20.4785553,45 L20.4785553,44.7732997 Z" id="Path"></path>
                    <path d="M44.3160271,7.70780856 L3.68397291,7.70780856 C1.62528217,7.70780856 0,6.00755668 0,3.85390428 C0,1.70025189 1.62528217,-1.54543045e-13 3.68397291,-1.54543045e-13 L44.3160271,-1.54543045e-13 C46.3747178,-1.54543045e-13 48,1.70025189 48,3.85390428 C48,6.00755668 46.3747178,7.70780856 44.3160271,7.70780856 Z M3.68397291,2.49370277 C2.9255079,2.49370277 2.38374718,3.17380353 2.38374718,3.85390428 C2.38374718,4.53400504 3.03386005,5.21410579 3.68397291,5.21410579 L44.3160271,5.21410579 C45.0744921,5.21410579 45.6162528,4.53400504 45.6162528,3.85390428 C45.6162528,3.17380353 44.96614,2.49370277 44.3160271,2.49370277 L3.68397291,2.49370277 Z" id="Shape"></path>
                </g>
                <g id="Group" transform="translate(23, 13)">
                    <path d="M10.7217665,22.5735413 C9.18223076,22.5735413 7.64269506,22.2300541 6.2131262,21.5430799 C5.11345785,20.9706014 4.01378949,20.2836272 3.13405481,19.2531658 C-1.04468494,14.9023291 -1.04468494,7.8035954 3.13405481,3.33826293 C4.01378949,2.42229729 5.11345785,1.62082736 6.2131262,1.04834884 C9.18223076,-0.440095314 12.8111363,-0.325599609 15.670274,1.27734025 C16.6599756,1.73532307 17.5397102,2.42229729 18.3094781,3.33826293 C22.4882178,7.68909969 22.4882178,14.7878334 18.3094781,19.2531658 C17.5397102,20.0546358 16.5500087,20.74161 15.670274,21.3140885 C14.1307383,22.1155584 12.4812358,22.5735413 10.7217665,22.5735413 L10.7217665,22.5735413 Z M10.7217665,2.536793 C9.51213126,2.536793 8.30249607,2.76578441 7.20282772,3.33826293 C6.32309304,3.79624575 5.44335835,4.36872427 4.78355734,5.05569849 C1.48455228,8.49056962 1.48455228,14.1008591 4.78355734,17.4212346 C5.55332519,18.2227045 6.32309304,18.795183 7.20282772,19.1386701 C9.6220981,20.2836272 12.371269,20.2836272 14.6805725,19.0241744 C15.4503404,18.6806873 16.1101414,18.1082088 16.7699424,17.4212346 C20.0689475,13.9863634 20.0689475,8.37607392 16.7699424,4.94120279 C16.1101414,4.25422856 15.4503404,3.79624575 14.6805725,3.33826293 C13.4709373,2.6512887 12.1513353,2.30780159 10.8317333,2.30780159 L10.7217665,2.536793 Z" id="Shape"></path>
                    <path d="M21.71845,24.1764811 C21.71845,24.1764811 21.1686158,24.0619854 20.8387153,23.832994 L17.0998429,19.9401401 C17.0998429,19.9401401 16.6599756,18.6806873 17.0998429,18.2227045 C17.5397102,17.7647217 18.3094781,17.7647217 18.7493454,18.2227045 L22.4882178,22.1155584 C22.4882178,22.1155584 22.9280852,23.3750112 22.4882178,23.832994 C22.2682842,24.0619854 21.9383837,24.1764811 21.6084832,24.1764811 L21.71845,24.1764811 Z" id="Path"></path>
                    <path d="M30.5157968,37 C30.5157968,37 29.8559958,36.8855043 29.6360621,36.6565129 L19.0792459,25.6649253 C19.0792459,25.6649253 18.7493454,25.0924468 18.7493454,24.7489596 C18.7493454,24.4054725 18.8593123,24.0619854 19.0792459,23.832994 L22.5981847,20.1691315 C22.5981847,20.1691315 23.8078199,19.7111486 24.2476872,20.1691315 L34.8045034,31.1607191 C34.8045034,31.1607191 35.2443707,32.4201718 34.8045034,32.8781546 L31.2855647,36.5420172 C31.2855647,36.5420172 30.7357305,36.8855043 30.40583,36.8855043 L30.5157968,37 Z M21.6084832,24.7489596 L30.5157968,34.0231117 L32.385233,32.0766847 L23.4779194,22.8025327 L21.6084832,24.7489596 L21.6084832,24.7489596 Z" id="Shape"></path>
                </g>
            </g>
        </g>
    </g>
</svg>