<?xml version="1.0" encoding="utf-8"?>
<!-- Generator: Adobe Illustrator 16.0.0, SVG Export Plug-In . SVG Version: 6.00 Build 0)  -->
<!DOCTYPE svg PUBLIC "-//W3C//DTD SVG 1.1//EN" "http://www.w3.org/Graphics/SVG/1.1/DTD/svg11.dtd">
<svg version="1.1" xmlns="http://www.w3.org/2000/svg" xmlns:xlink="http://www.w3.org/1999/xlink" x="0px" y="0px"
	 width="32.129px" height="28.566px" viewBox="0 0 32.129 28.566" enable-background="new 0 0 32.129 28.566" xml:space="preserve">
<g id="Layer_1">
	<g>
		<path fill="none" stroke="#293F54" stroke-width="0.5669" stroke-miterlimit="10" d="M31.846,27.283c0,0.552-0.447,1-1,1H1.283
			c-0.552,0-1-0.448-1-1v-26c0-0.553,0.448-1,1-1h29.563c0.553,0,1,0.447,1,1V27.283z"/>
		<line fill="none" stroke="#293F54" stroke-width="0.5669" stroke-miterlimit="10" x1="0.096" y1="7.221" x2="31.783" y2="7.221"/>
		<circle fill="#00B1CC" cx="2.846" cy="3.846" r="0.813"/>
		<circle fill="#00B1CC" cx="6.846" cy="3.846" r="0.813"/>
		<circle fill="#00B1CC" cx="10.846" cy="3.846" r="0.813"/>
		<circle fill="#293F54" cx="16.221" cy="3.846" r="0.5"/>
		<circle fill="#293F54" cx="18.746" cy="3.846" r="0.5"/>
		<circle fill="#293F54" cx="21.271" cy="3.846" r="0.5"/>
		<circle fill="#293F54" cx="23.797" cy="3.846" r="0.5"/>
		<circle fill="#293F54" cx="26.321" cy="3.846" r="0.5"/>
		<circle fill="#293F54" cx="28.846" cy="3.846" r="0.5"/>
	</g>
	
		<path fill="none" stroke="#293F54" stroke-width="0.3844" stroke-linecap="round" stroke-linejoin="round" stroke-miterlimit="10" d="
		M9.868,19.217c0,0.553-0.447,1-1,1H4.481c-0.553,0-1-0.447-1-1V14.83c0-0.553,0.447-1,1-1h4.387c0.553,0,1,0.447,1,1V19.217z"/>
	
		<path fill="none" stroke="#293F54" stroke-width="0.3844" stroke-linecap="round" stroke-linejoin="round" stroke-miterlimit="10" d="
		M19.259,19.217c0,0.553-0.447,1-1,1h-4.387c-0.553,0-1-0.447-1-1V14.83c0-0.553,0.447-1,1-1h4.387c0.553,0,1,0.447,1,1V19.217z"/>
	
		<path fill="none" stroke="#293F54" stroke-width="0.3844" stroke-linecap="round" stroke-linejoin="round" stroke-miterlimit="10" d="
		M28.649,19.217c0,0.553-0.447,1-1,1h-4.387c-0.553,0-1-0.447-1-1V14.83c0-0.553,0.447-1,1-1h4.387c0.553,0,1,0.447,1,1V19.217z"/>
	<polygon fill="#00B1CC" points="6.846,15.038 7.49,16.345 8.933,16.555 7.89,17.572 8.136,19.009 6.846,18.331 5.556,19.009 
		5.802,17.572 4.759,16.555 6.201,16.345 	"/>
	<polygon fill="#00B1CC" points="25.456,14.677 25.905,15.939 27.115,15.364 26.54,16.574 27.803,17.023 26.54,17.473 
		27.115,18.683 25.905,18.107 25.456,19.37 25.007,18.107 23.797,18.683 24.372,17.473 23.109,17.023 24.372,16.574 23.797,15.364 
		25.007,15.939 	"/>
	<path fill="#FFC500" d="M14.289,18.746c0.046-0.135,1.68-3.444,1.68-3.444l1.872,3.444H14.289z"/>
	<g>
		
			<polyline fill="#FFFFFF" stroke="#293F54" stroke-width="0.4544" stroke-linecap="round" stroke-linejoin="round" stroke-miterlimit="10" points="
			19.616,21.929 20.824,20.721 15.668,19.34 17.05,24.496 18.258,23.288 		"/>
		<g>
			
				<line fill="none" stroke="#293F54" stroke-width="0.4544" stroke-linecap="round" stroke-linejoin="round" stroke-miterlimit="10" x1="19.255" y1="22.928" x2="20.763" y2="24.436"/>
		</g>
	</g>
</g>
<g id="txt">
</g>
</svg>
