<?xml version="1.0" encoding="UTF-8"?>
<svg id="Livello_2" data-name="Livello 2" xmlns="http://www.w3.org/2000/svg" viewBox="0 0 529.72 505">
  <defs>
    <style>
      .cls-1 {
        fill: #222426;
      }
    </style>
  </defs>
  <g id="Layer_1" data-name="Layer 1">
    <g>
      <g>
        <path class="cls-1" d="M335.26,364.89V217.44c0-6.39-.03-12.77,0-19.16,0-1.08,.07-2.15,.2-3.22l-.27,1.99c.29-2.12,.84-4.16,1.65-6.14l-.76,1.79c.6-1.41,1.32-2.76,2.18-4.04,.18-.27,.38-.53,.56-.8,.71-1.02-1.34,1.63-.17,.24,.45-.54,.93-1.06,1.43-1.56s1.02-.97,1.56-1.43c1.4-1.17-1.25,.87-.23,.17,.27-.18,.53-.38,.8-.56,1.28-.85,2.64-1.56,4.05-2.16l-1.79,.76c1.87-.76,3.81-1.29,5.8-1.59l-1.99,.27c2.19-.29,4.38-.3,6.57-.02l-1.99-.27c2.12,.3,4.17,.86,6.15,1.69l-1.79-.76c1.41,.61,2.77,1.34,4.04,2.21,.27,.18,.53,.39,.8,.57-1.97-1.27-.96-.76-.49-.37,.59,.49,1.15,1,1.69,1.54,.5,.5,.96,1.04,1.43,1.57,1.05,1.19-1.01-1.42-.26-.36,.19,.27,.38,.53,.57,.8,.86,1.28,1.58,2.64,2.19,4.05l-.76-1.79c.82,1.98,1.37,4.03,1.67,6.16l-.27-1.99c.25,2.04,.2,4.09,.2,6.14v117.65c0,5.71-.1,11.44,0,17.15,0,.08,0,.16,0,.24,0,3.92,3.45,7.68,7.5,7.5s7.5-3.3,7.5-7.5V206.32c0-2.63,0-5.25,0-7.88-.02-11.21-5.95-21.87-15.73-27.48-12.28-7.05-28.48-4.86-38.28,5.45-5.88,6.18-8.77,14.21-8.77,22.68v165.81c0,3.92,3.45,7.68,7.5,7.5s7.5-3.3,7.5-7.5h0Z"/>
        <path class="cls-1" d="M383.04,338.61v-18.25c0-9.35,0-18.71,0-28.06,0-2.75-.14-5.57,.2-8.3l-.27,1.99c.29-2.11,.84-4.16,1.65-6.13l-.76,1.79c.6-1.41,1.32-2.76,2.17-4.04,.18-.27,.37-.53,.56-.8,.71-1.02-1.34,1.63-.17,.24,.45-.54,.93-1.06,1.43-1.56s1.02-.97,1.56-1.43c1.4-1.17-1.26,.88-.24,.17,.27-.19,.53-.38,.8-.56,1.28-.85,2.63-1.56,4.04-2.16l-1.79,.76c1.97-.81,4.02-1.35,6.13-1.64l-1.99,.27c2.08-.25,4.15-.25,6.23,.01l-1.99-.27c2.13,.3,4.18,.86,6.16,1.68l-1.79-.76c1.42,.61,2.77,1.34,4.05,2.2,.27,.18,.54,.38,.8,.57,1.06,.75-1.41-1.17-.49-.37,.58,.5,1.15,1,1.69,1.54,.5,.5,.96,1.04,1.43,1.57,1.05,1.19-1.01-1.42-.26-.36,.19,.27,.38,.53,.57,.8,.86,1.28,1.59,2.64,2.2,4.06l-.76-1.79c.82,1.98,1.38,4.04,1.67,6.17l-.27-1.99c.29,2.36,.2,4.76,.2,7.13v47.51c0,3.92,3.45,7.68,7.5,7.5s7.5-3.3,7.5-7.5v-46.62c0-5.04,.08-10.1-1.66-14.93-3.84-10.7-13.14-19.22-24.58-20.87-6.55-.95-12.71-.07-18.74,2.65-5.15,2.32-9.4,6.34-12.57,10.95-4.01,5.82-5.23,12.65-5.23,19.56v49.27c0,3.92,3.45,7.68,7.5,7.5s7.5-3.3,7.5-7.5h0Z"/>
        <path class="cls-1" d="M430.82,338.61v-33.75c0-2.18-.07-4.37,.2-6.53l-.27,1.99c.29-2.11,.84-4.16,1.65-6.13l-.76,1.79c.6-1.41,1.32-2.76,2.17-4.03,.18-.27,.37-.53,.56-.8,.71-1.02-1.34,1.63-.17,.24,.45-.54,.93-1.06,1.43-1.56s1.02-.97,1.56-1.43c1.4-1.17-1.26,.88-.24,.17,.27-.19,.53-.38,.8-.56,1.27-.85,2.63-1.56,4.04-2.16l-1.79,.76c1.97-.81,4.02-1.35,6.13-1.64l-1.99,.27c2.08-.25,4.15-.25,6.23,.01l-1.99-.27c2.13,.3,4.18,.86,6.16,1.68l-1.79-.76c1.42,.61,2.77,1.34,4.05,2.2,.27,.18,.54,.38,.8,.57,1.06,.75-1.41-1.17-.49-.37,.58,.5,1.15,1,1.69,1.54,.5,.5,.96,1.04,1.43,1.57,1.05,1.19-1.01-1.42-.26-.36,.19,.27,.38,.53,.57,.8,.86,1.28,1.59,2.64,2.2,4.06l-.76-1.79c.82,1.98,1.38,4.04,1.67,6.17l-.27-1.99c.24,1.94,.2,3.88,.2,5.83v34.48c0,3.92,3.45,7.68,7.5,7.5s7.5-3.3,7.5-7.5v-36.04c0-6.39-1.43-12.76-5.01-18.14-2.64-3.96-6-7.31-10.05-9.82s-8.72-3.87-13.52-4.41c-9.05-1.02-18.44,2.56-24.88,8.91-5.97,5.89-9.28,14.07-9.32,22.43-.01,3.13,0,6.26,0,9.39v27.69c0,3.92,3.45,7.68,7.5,7.5s7.5-3.3,7.5-7.5h0Z"/>
        <path class="cls-1" d="M478.6,338.61c0-8.21,0-16.42,0-24.63,0-1.74-.03-3.46,.18-5.19l-.27,1.99c.26-1.9,.75-3.74,1.48-5.52l-.76,1.79c.52-1.22,1.13-2.39,1.86-3.49,.18-.27,.37-.54,.56-.81,.73-1.07-1.17,1.41-.37,.48,.46-.54,.93-1.07,1.43-1.57,.46-.46,.96-.89,1.45-1.32,1.12-.99-1.14,.79-.49,.37,.27-.18,.53-.38,.81-.56,1.15-.76,2.36-1.4,3.63-1.95l-1.79,.76c1.78-.73,3.62-1.22,5.52-1.48l-1.99,.27c1.85-.22,3.7-.22,5.55,0l-1.99-.27c1.9,.26,3.74,.76,5.51,1.48l-1.79-.76c1.21,.52,2.38,1.13,3.49,1.86,.27,.18,.54,.37,.81,.56,1.07,.73-1.41-1.17-.48-.37,.54,.46,1.07,.92,1.57,1.43,.46,.46,.89,.96,1.32,1.45,.99,1.12-.79-1.14-.37-.49,.18,.27,.38,.53,.56,.81,.76,1.15,1.4,2.36,1.94,3.62l-.76-1.79c.73,1.78,1.22,3.61,1.48,5.51l-.27-1.99c.39,3.23,.18,6.58,.18,9.82v14.64c0,3.76,0,7.51,0,11.27,0,8.58,0,17.17,0,25.75,0,9.81,0,19.62,0,29.43,0,4.81,.02,9.61,0,14.42,0,1.99-.15,3.96-.41,5.93l.27-1.99c-.48,3.33-1.32,6.57-2.52,9.71l1.93-3.31c-1.57,1.57-2.17,3.99-3.02,6.01l.76-1.79c-2.1,4.97-4.56,9.79-7.38,14.4-1.42,2.32-2.94,4.59-4.54,6.79-.35,.48-.7,.95-1.05,1.42-.21,.28-.43,.56-.64,.84,1.44-1.95,.64-.83,.31-.4-.8,1.02-1.62,2.02-2.46,3-3.41,4.01-7.11,7.77-11.07,11.23-.97,.84-1.95,1.67-2.94,2.48-.45,.37-.91,.73-1.37,1.09-1.09,.87,1.52-1.16,.41-.32-.37,.28-.74,.56-1.12,.84-2.06,1.53-4.17,2.98-6.33,4.36-5.02,3.2-10.3,5.96-15.78,8.29l1.79-.76c-8.72,3.66-17.88,6.16-27.25,7.42l1.99-.27c-9.36,1.23-18.85,1.23-28.21-.01l1.99,.27c-9.31-1.26-18.42-3.75-27.09-7.38l1.79,.76c-5.79-2.45-11.37-5.4-16.65-8.82-1.33-.86-2.64-1.76-3.93-2.68-.62-.44-1.24-.89-1.85-1.35-.28-.21-.56-.43-.84-.64-.63-.47,.94,.74,.82,.64-.22-.19-.46-.36-.69-.54-2.45-1.93-4.81-3.97-7.07-6.11s-4.54-4.48-6.65-6.87c-1.06-1.2-2.09-2.42-3.1-3.67-.43-.54-2.06-2.7-.48-.58-.46-.62-.93-1.23-1.39-1.86-3.84-5.24-7.19-10.83-10-16.69-2.29-4.75-4.39-9.6-6.59-14.4-3.56-7.74-7.11-15.48-10.67-23.22-2.2-4.78-4.4-9.55-6.59-14.34-.26-.57-.52-1.15-.76-1.73l.76,1.79c-1.83-4.39-3.1-8.98-3.76-13.69l.27,1.99c-.64-4.8-.66-9.65-.04-14.45l-.27,1.99c.65-4.86,1.94-9.6,3.83-14.12l-.76,1.79c1.59-3.75,3.58-7.32,5.96-10.63,.26-.37,.56-.93,.9-1.22,.01-.01-1.26,1.6-.55,.72,.14-.18,.28-.35,.42-.53,.68-.83,1.38-1.64,2.1-2.43,1.38-1.51,2.85-2.94,4.4-4.29,.74-.64,1.51-1.25,2.26-1.86-2.03,1.65-.46,.37,0,.03,.52-.38,1.04-.74,1.58-1.1,1.58-1.06,3.22-1.99,4.88-2.92,1.79-.99,3.55-2.02,5.33-3.03,2-1.14,4-2.28,5.99-3.41,3.41-1.94,4.87-6.88,2.69-10.26s-6.61-4.77-10.26-2.69c-9.65,5.5-19.73,10.51-27.37,18.8-11.18,12.14-17.44,28.67-16.53,45.21,.45,8.25,2.52,16.04,5.94,23.53,.95,2.09,1.92,4.17,2.87,6.25,4.25,9.26,8.51,18.52,12.76,27.79,3.15,6.85,6.09,13.88,9.54,20.59,7.72,14.99,18.89,27.88,32.22,38.13s27.96,16.89,43.73,20.38c16.63,3.68,33.9,3.64,50.51-.12,15.65-3.55,30.64-10.6,43.34-20.39s24.27-22.96,31.95-37.8c2.05-3.95,3.83-8.04,5.45-12.19l-1.93,3.31c1.81-1.81,2.61-4.97,3.3-7.43,.51-1.84,.89-3.7,1.16-5.59,.38-2.68,.67-5.35,.68-8.06,0-1.23,0-2.46,0-3.7,0-6.09,0-12.17,0-18.26,0-8.23,0-16.46,0-24.69,0-7.03,0-14.06,0-21.08,0-2.67,0-5.33,0-8,0-6.8,0-13.6,0-20.4,0-2.09,.01-4.19,0-6.28-.05-7.33-2.82-14.24-7.7-19.67-9.45-10.52-26.67-12.46-38.06-3.95-5.74,4.29-10.19,10.35-11.58,17.5-.64,3.28-.66,6.46-.66,9.76v23.4c0,3.92,3.45,7.68,7.5,7.5s7.5-3.3,7.5-7.5h0Z"/>
      </g>
      <path class="cls-1" d="M75.96,11.28c2.63,5.32,5.25,10.64,7.88,15.96,4.18,8.46,8.35,16.93,12.53,25.39,.91,1.83,1.74,3.73,2.73,5.52,1.94,3.54,5.05,3.58,8.37,4.06,8.86,1.29,17.73,2.58,26.59,3.86,6.99,1.02,13.98,2.18,20.99,3.05,.11,.01,.23,.03,.34,.05-1.1-4.18-2.21-8.36-3.31-12.54-4.28,4.17-8.55,8.34-12.83,12.51-6.75,6.58-13.5,13.16-20.25,19.74-1.45,1.41-2.98,2.77-4.36,4.25-.86,.92-1.68,2.11-1.96,3.34-.32,1.39-.21,2.65,0,4.04,.03,.2,.07,.4,.1,.61l.53,3.11c1.52,8.85,3.04,17.7,4.55,26.55,1.19,6.97,2.26,13.97,3.59,20.91,.02,.11,.04,.23,.06,.34,3.67-2.82,7.34-5.65,11.02-8.47-5.29-2.78-10.57-5.56-15.86-8.34-8.34-4.39-16.69-8.77-25.03-13.16-1.79-.94-3.57-1.94-5.38-2.83-2.6-1.28-5.09-1.26-7.66,0-.18,.09-.36,.19-.54,.29l-2.8,1.47c-7.95,4.18-15.9,8.36-23.84,12.54-6.26,3.29-12.59,6.46-18.78,9.87-.1,.06-.2,.11-.31,.16,3.67,2.82,7.34,5.65,11.02,8.47,1.01-5.89,2.02-11.77,3.03-17.66,1.59-9.29,3.19-18.58,4.78-27.87,.34-2,.71-3.99,1.03-6,.22-1.37,.46-2.65,0-4.03-.41-1.25-1.07-2.39-1.97-3.35-.14-.15-.29-.29-.44-.43l-2.26-2.21c-6.43-6.27-12.86-12.54-19.29-18.8-5.06-4.93-10.03-9.98-15.19-14.81-.08-.08-.17-.16-.25-.24-1.1,4.18-2.21,8.36-3.31,12.54,5.87-.85,11.74-1.71,17.61-2.56,9.34-1.36,18.68-2.71,28.02-4.07,2.02-.29,4.09-.48,6.09-.89,3.68-.74,4.85-4.08,6.26-6.95,3.96-8.03,7.93-16.06,11.89-24.09,3.13-6.34,6.3-12.66,9.39-19.02,.05-.1,.1-.21,.15-.31,.9-1.82,1.31-3.77,.76-5.78-.48-1.74-1.82-3.63-3.45-4.48-3.38-1.79-8.41-1.07-10.26,2.69-2.61,5.28-5.22,10.57-7.82,15.85-4.16,8.42-8.31,16.85-12.47,25.27-.95,1.93-1.91,3.87-2.86,5.8l4.48-3.45c-5.83,.85-11.66,1.69-17.5,2.54-9.3,1.35-18.59,2.7-27.89,4.05-2.13,.31-4.27,.62-6.4,.93-2.49,.36-4.61,2.96-5.24,5.24-.7,2.55,.02,5.44,1.93,7.3,4.22,4.11,8.44,8.23,12.66,12.34,6.73,6.56,13.45,13.11,20.18,19.67,1.54,1.51,3.09,3.01,4.63,4.52-.64-2.43-1.29-4.86-1.93-7.3-1,5.81-1.99,11.62-2.99,17.42-1.59,9.26-3.18,18.52-4.76,27.77-.36,2.13-.73,4.25-1.09,6.38-.52,3.06,.12,5.9,2.69,7.88s5.61,2.01,8.33,.59c5.22-2.74,10.43-5.48,15.65-8.23,8.31-4.37,16.63-8.74,24.94-13.11,1.91-1,3.82-2.01,5.73-3.01h-7.57c5.22,2.74,10.43,5.48,15.65,8.23,8.31,4.37,16.63,8.74,24.94,13.11,1.91,1,3.82,2.01,5.73,3.01,2.71,1.43,5.87,1.31,8.33-.59s3.21-4.82,2.69-7.88c-1-5.81-1.99-11.62-2.99-17.42-1.59-9.26-3.18-18.52-4.76-27.77-.36-2.13-.73-4.25-1.09-6.38-.64,2.43-1.29,4.86-1.93,7.3,4.22-4.11,8.44-8.23,12.66-12.34,6.73-6.56,13.45-13.11,20.18-19.67,1.54-1.51,3.09-3.01,4.63-4.52,1.91-1.86,2.63-4.74,1.93-7.3-.63-2.28-2.75-4.88-5.24-5.24-5.83-.85-11.66-1.69-17.5-2.54-9.3-1.35-18.59-2.7-27.89-4.05-2.13-.31-4.27-.62-6.4-.93l4.48,3.45c-2.61-5.28-5.22-10.57-7.82-15.85-4.16-8.42-8.31-16.85-12.47-25.27-.95-1.93-1.91-3.87-2.86-5.8-1.74-3.53-7.02-4.78-10.26-2.69-3.61,2.33-4.55,6.49-2.69,10.26Z"/>
      <path class="cls-1" d="M258.39,11.28c2.63,5.32,5.25,10.64,7.88,15.96,4.18,8.46,8.35,16.93,12.53,25.39,.91,1.83,1.74,3.73,2.73,5.52,1.94,3.54,5.05,3.58,8.37,4.06,8.86,1.29,17.73,2.58,26.59,3.86,6.99,1.02,13.98,2.18,20.99,3.05,.11,.01,.23,.03,.34,.05-1.1-4.18-2.21-8.36-3.31-12.54-4.28,4.17-8.55,8.34-12.83,12.51-6.75,6.58-13.5,13.16-20.25,19.74-1.45,1.41-2.98,2.77-4.36,4.25-.86,.92-1.68,2.11-1.96,3.34-.32,1.39-.21,2.65,0,4.04,.03,.2,.07,.4,.1,.61l.53,3.11c1.52,8.85,3.04,17.7,4.55,26.55,1.19,6.97,2.26,13.97,3.59,20.91,.02,.11,.04,.23,.06,.34,3.67-2.82,7.34-5.65,11.02-8.47-5.29-2.78-10.57-5.56-15.86-8.34-8.34-4.39-16.69-8.77-25.03-13.16-1.79-.94-3.57-1.94-5.38-2.83-2.6-1.28-5.09-1.26-7.66,0-.18,.09-.36,.19-.54,.29l-2.8,1.47c-7.95,4.18-15.9,8.36-23.84,12.54-6.26,3.29-12.59,6.46-18.78,9.87-.1,.06-.2,.11-.31,.16,3.67,2.82,7.34,5.65,11.02,8.47,1.01-5.89,2.02-11.77,3.03-17.66,1.59-9.29,3.19-18.58,4.78-27.87,.34-2,.71-3.99,1.03-6,.22-1.37,.46-2.65,0-4.03-.41-1.25-1.07-2.39-1.97-3.35-.14-.15-.29-.29-.44-.43l-2.26-2.21c-6.43-6.27-12.86-12.54-19.29-18.8-5.06-4.93-10.03-9.98-15.19-14.81-.08-.08-.17-.16-.25-.24-1.1,4.18-2.21,8.36-3.31,12.54,5.87-.85,11.74-1.71,17.61-2.56,9.34-1.36,18.68-2.71,28.02-4.07,2.02-.29,4.09-.48,6.09-.89,3.68-.74,4.85-4.08,6.26-6.95,3.96-8.03,7.93-16.06,11.89-24.09,3.13-6.34,6.3-12.66,9.39-19.02,.05-.1,.1-.21,.15-.31,.9-1.82,1.31-3.77,.76-5.78-.48-1.74-1.82-3.63-3.45-4.48-3.38-1.79-8.41-1.07-10.26,2.69-2.61,5.28-5.22,10.57-7.82,15.85-4.16,8.42-8.31,16.85-12.47,25.27-.95,1.93-1.91,3.87-2.86,5.8l4.48-3.45c-5.83,.85-11.66,1.69-17.5,2.54-9.3,1.35-18.59,2.7-27.89,4.05-2.13,.31-4.27,.62-6.4,.93-2.49,.36-4.61,2.96-5.24,5.24-.7,2.55,.02,5.44,1.93,7.3,4.22,4.11,8.44,8.23,12.66,12.34,6.73,6.56,13.45,13.11,20.18,19.67,1.54,1.51,3.09,3.01,4.63,4.52-.64-2.43-1.29-4.86-1.93-7.3-1,5.81-1.99,11.62-2.99,17.42-1.59,9.26-3.18,18.52-4.76,27.77-.36,2.13-.73,4.25-1.09,6.38-.52,3.06,.12,5.9,2.69,7.88s5.61,2.01,8.33,.59c5.22-2.74,10.43-5.48,15.65-8.23,8.31-4.37,16.63-8.74,24.94-13.11,1.91-1,3.82-2.01,5.73-3.01h-7.57c5.22,2.74,10.43,5.48,15.65,8.23,8.31,4.37,16.63,8.74,24.94,13.11,1.91,1,3.82,2.01,5.73,3.01,2.71,1.43,5.87,1.31,8.33-.59s3.21-4.82,2.69-7.88c-1-5.81-1.99-11.62-2.99-17.42-1.59-9.26-3.18-18.52-4.76-27.77-.36-2.13-.73-4.25-1.09-6.38l-1.93,7.3c4.22-4.11,8.44-8.23,12.66-12.34,6.73-6.56,13.45-13.11,20.18-19.67,1.54-1.51,3.09-3.01,4.63-4.52,1.91-1.86,2.63-4.74,1.93-7.3-.63-2.28-2.75-4.88-5.24-5.24-5.83-.85-11.66-1.69-17.5-2.54-9.3-1.35-18.59-2.7-27.89-4.05-2.13-.31-4.27-.62-6.4-.93l4.48,3.45c-2.61-5.28-5.22-10.57-7.82-15.85-4.16-8.42-8.31-16.85-12.47-25.27-.95-1.93-1.91-3.87-2.86-5.8-1.74-3.53-7.02-4.78-10.26-2.69-3.61,2.33-4.55,6.49-2.69,10.26Z"/>
      <path class="cls-1" d="M440.81,11.28c2.63,5.32,5.25,10.64,7.88,15.96,4.18,8.46,8.35,16.93,12.53,25.39,.91,1.83,1.74,3.73,2.73,5.52,1.94,3.54,5.05,3.58,8.37,4.06,8.86,1.29,17.73,2.58,26.59,3.86,6.99,1.02,13.98,2.18,20.99,3.05,.11,.01,.23,.03,.34,.05-1.1-4.18-2.21-8.36-3.31-12.54-4.28,4.17-8.55,8.34-12.83,12.51-6.75,6.58-13.5,13.16-20.25,19.74-1.45,1.41-2.98,2.77-4.36,4.25-.86,.92-1.68,2.11-1.96,3.34-.32,1.39-.21,2.65,0,4.04,.03,.2,.07,.4,.1,.61l.53,3.11c1.52,8.85,3.04,17.7,4.55,26.55,1.19,6.97,2.26,13.97,3.59,20.91,.02,.11,.04,.23,.06,.34,3.67-2.82,7.34-5.65,11.02-8.47-5.29-2.78-10.57-5.56-15.86-8.34-8.34-4.39-16.69-8.77-25.03-13.16-1.79-.94-3.57-1.94-5.38-2.83-2.6-1.28-5.09-1.26-7.66,0-.18,.09-.36,.19-.54,.29l-2.8,1.47c-7.95,4.18-15.9,8.36-23.84,12.54-6.26,3.29-12.59,6.46-18.78,9.87-.1,.06-.2,.11-.31,.16,3.67,2.82,7.34,5.65,11.02,8.47,1.01-5.89,2.02-11.77,3.03-17.66,1.59-9.29,3.19-18.58,4.78-27.87,.34-2,.71-3.99,1.03-6,.22-1.37,.46-2.65,0-4.03-.41-1.25-1.07-2.39-1.97-3.35-.14-.15-.29-.29-.44-.43l-2.26-2.21c-6.43-6.27-12.86-12.54-19.29-18.8-5.06-4.93-10.03-9.98-15.19-14.81-.08-.08-.17-.16-.25-.24-1.1,4.18-2.21,8.36-3.31,12.54,5.87-.85,11.74-1.71,17.61-2.56,9.34-1.36,18.68-2.71,28.02-4.07,2.02-.29,4.09-.48,6.09-.89,3.68-.74,4.85-4.08,6.26-6.95,3.96-8.03,7.93-16.06,11.89-24.09,3.13-6.34,6.3-12.66,9.39-19.02,.05-.1,.1-.21,.15-.31,.9-1.82,1.31-3.77,.76-5.78-.48-1.74-1.82-3.63-3.45-4.48-3.38-1.79-8.41-1.07-10.26,2.69-2.61,5.28-5.22,10.57-7.82,15.85-4.16,8.42-8.31,16.85-12.47,25.27-.95,1.93-1.91,3.87-2.86,5.8l4.48-3.45c-5.83,.85-11.66,1.69-17.5,2.54-9.3,1.35-18.59,2.7-27.89,4.05-2.13,.31-4.27,.62-6.4,.93-2.49,.36-4.61,2.96-5.24,5.24-.7,2.55,.02,5.44,1.93,7.3,4.22,4.11,8.44,8.23,12.66,12.34,6.73,6.56,13.45,13.11,20.18,19.67,1.54,1.51,3.09,3.01,4.63,4.52-.64-2.43-1.29-4.86-1.93-7.3-1,5.81-1.99,11.62-2.99,17.42-1.59,9.26-3.18,18.52-4.76,27.77-.36,2.13-.73,4.25-1.09,6.38-.52,3.06,.12,5.9,2.69,7.88s5.61,2.01,8.33,.59c5.22-2.74,10.43-5.48,15.65-8.23,8.31-4.37,16.63-8.74,24.94-13.11,1.91-1,3.82-2.01,5.73-3.01h-7.57c5.22,2.74,10.43,5.48,15.65,8.23,8.31,4.37,16.63,8.74,24.94,13.11,1.91,1,3.82,2.01,5.73,3.01,2.71,1.43,5.87,1.31,8.33-.59s3.21-4.82,2.69-7.88c-1-5.81-1.99-11.62-2.99-17.42-1.59-9.26-3.18-18.52-4.76-27.77-.36-2.13-.73-4.25-1.09-6.38-.64,2.43-1.29,4.86-1.93,7.3,4.22-4.11,8.44-8.23,12.66-12.34,6.73-6.56,13.45-13.11,20.18-19.67,1.54-1.51,3.09-3.01,4.63-4.52,1.91-1.86,2.63-4.74,1.93-7.3-.63-2.28-2.75-4.88-5.24-5.24-5.83-.85-11.66-1.69-17.5-2.54-9.3-1.35-18.59-2.7-27.89-4.05-2.13-.31-4.27-.62-6.4-.93l4.48,3.45c-2.61-5.28-5.22-10.57-7.82-15.85-4.16-8.42-8.31-16.85-12.47-25.27-.95-1.93-1.91-3.87-2.86-5.8-1.74-3.53-7.02-4.78-10.26-2.69-3.61,2.33-4.55,6.49-2.69,10.26Z"/>
    </g>
  </g>
</svg>